<svg width="15" height="15" viewBox="0 0 15 15" fill="none" xmlns="http://www.w3.org/2000/svg">
<path d="M6.75 1.41406H2.08333C1.72971 1.41406 1.39057 1.55454 1.14052 1.80459C0.890476 2.05464 0.75 2.39377 0.75 2.7474V12.0807C0.75 12.4344 0.890476 12.7735 1.14052 13.0235C1.39057 13.2736 1.72971 13.4141 2.08333 13.4141H11.4167C11.7703 13.4141 12.1094 13.2736 12.3595 13.0235C12.6095 12.7735 12.75 12.4344 12.75 12.0807V7.41406M11 1.16421C11.2652 0.898997 11.6249 0.75 12 0.75C12.3751 0.75 12.7348 0.898997 13 1.16421C13.2652 1.42943 13.4142 1.78914 13.4142 2.16421C13.4142 2.53929 13.2652 2.899 13 3.16421L6.99134 9.17355C6.83304 9.33171 6.63747 9.44749 6.42267 9.51021L4.50733 10.0702C4.44997 10.0869 4.38916 10.0879 4.33127 10.0731C4.27339 10.0583 4.22055 10.0282 4.1783 9.98592C4.13605 9.94366 4.10593 9.89083 4.0911 9.83294C4.07627 9.77505 4.07727 9.71425 4.094 9.65688L4.654 7.74155C4.71702 7.52691 4.83302 7.33159 4.99134 7.17355L11 1.16421Z" stroke="#737373" stroke-width="1.5" stroke-linecap="round" stroke-linejoin="round"/>
</svg>
