<svg width="24" height="22" viewBox="0 0 24 22" fill="none" xmlns="http://www.w3.org/2000/svg">
<path d="M15.9242 20.0455V17.9848C15.9242 16.8918 15.49 15.8436 14.7172 15.0707C13.9443 14.2978 12.896 13.8636 11.803 13.8636H5.62121C4.5282 13.8636 3.47995 14.2978 2.70708 15.0707C1.9342 15.8436 1.5 16.8918 1.5 17.9848V20.0455M16.9545 6.65152L22.1061 11.803M22.1061 6.65152L16.9545 11.803M12.8333 5.62121C12.8333 7.89729 10.9882 9.74242 8.71212 9.74242C6.43604 9.74242 4.59091 7.89729 4.59091 5.62121C4.59091 3.34513 6.43604 1.5 8.71212 1.5C10.9882 1.5 12.8333 3.34513 12.8333 5.62121Z" stroke="#163572" stroke-width="3" stroke-linecap="round" stroke-linejoin="round"/>
</svg>
