<svg width="16" height="16" viewBox="0 0 16 16" fill="none" xmlns="http://www.w3.org/2000/svg">
<path d="M10.6666 13.333V2.66634C10.6666 2.31272 10.5261 1.97358 10.2761 1.72353C10.026 1.47348 9.68687 1.33301 9.33325 1.33301H6.66658C6.31296 1.33301 5.97382 1.47348 5.72378 1.72353C5.47373 1.97358 5.33325 2.31272 5.33325 2.66634V13.333M2.66659 3.99967H13.3333C14.0696 3.99967 14.6666 4.59663 14.6666 5.33301V11.9997C14.6666 12.7361 14.0696 13.333 13.3333 13.333H2.66659C1.93021 13.333 1.33325 12.7361 1.33325 11.9997V5.33301C1.33325 4.59663 1.93021 3.99967 2.66659 3.99967Z" stroke="#737373" stroke-width="1.5" stroke-linecap="round" stroke-linejoin="round"/>
</svg>
