<svg width="10" height="15" viewBox="0 0 10 15" fill="none" xmlns="http://www.w3.org/2000/svg">
<path d="M7.068 8.01001L8.078 13.694C8.08931 13.7609 8.07992 13.8297 8.05108 13.8912C8.02224 13.9526 7.97533 14.0038 7.91662 14.0379C7.85791 14.0719 7.79019 14.0873 7.72253 14.0818C7.65487 14.0764 7.59049 14.0504 7.538 14.0073L5.15133 12.216C5.03611 12.1299 4.89615 12.0834 4.75233 12.0834C4.60851 12.0834 4.46855 12.1299 4.35333 12.216L1.96266 14.0067C1.91021 14.0496 1.84591 14.0756 1.77833 14.081C1.71075 14.0865 1.64311 14.0712 1.58444 14.0373C1.52577 14.0033 1.47885 13.9522 1.44994 13.8909C1.42104 13.8296 1.41152 13.7609 1.42266 13.694L2.432 8.01001M8.75 4.75C8.75 6.95914 6.95914 8.75 4.75 8.75C2.54086 8.75 0.75 6.95914 0.75 4.75C0.75 2.54086 2.54086 0.75 4.75 0.75C6.95914 0.75 8.75 2.54086 8.75 4.75Z" stroke="#737373" stroke-width="1.5" stroke-linecap="round" stroke-linejoin="round"/>
</svg>
