<svg width="15" height="15" viewBox="0 0 15 15" fill="none" xmlns="http://www.w3.org/2000/svg">
<path d="M7.41666 6.08333C7.06304 6.08333 6.7239 6.22381 6.47385 6.47386C6.2238 6.72391 6.08333 7.06304 6.08333 7.41667C6.08333 8.09667 6.01666 9.09 5.90999 10.0833M8.75 8.16341C8.75 9.75008 8.75 12.4167 8.08333 14.0834M10.9433 13.43C11.0233 13.03 11.23 11.8967 11.2767 11.4167M0.75 7.41667C0.75 6.01745 1.19025 4.6537 2.00839 3.5186C2.82652 2.38349 3.98107 1.53458 5.30848 1.09211C6.6359 0.64964 8.06888 0.636042 9.40445 1.05324C10.74 1.47044 11.9105 2.29729 12.75 3.41667M0.75 10.0833H0.756667M13.95 10.0833C14.0833 8.75 14.0373 6.514 13.95 6.08333M2.75 12.4167C3.08333 11.4167 3.41667 9.41667 3.41667 7.41667C3.41599 6.96258 3.49264 6.51169 3.64333 6.08333M5.18333 14.0833C5.32333 13.6433 5.48333 13.2033 5.56333 12.75M5.41667 3.94996C6.02493 3.59878 6.71494 3.41395 7.41731 3.41406C8.11967 3.41418 8.80963 3.59923 9.41778 3.9506C10.0259 4.30198 10.5308 4.80729 10.8817 5.41573C11.2326 6.02416 11.4171 6.71426 11.4167 7.41663V8.74996" stroke="#737373" stroke-width="1.5" stroke-linecap="round" stroke-linejoin="round"/>
</svg>
