<svg width="15" height="15" viewBox="0 0 15 15" fill="none" xmlns="http://www.w3.org/2000/svg">
<path d="M2.75 10.0833V8.08333C2.75 7.90652 2.82024 7.73695 2.94526 7.61193C3.07029 7.4869 3.23986 7.41667 3.41667 7.41667H11.4167C11.5935 7.41667 11.763 7.4869 11.8881 7.61193C12.0131 7.73695 12.0833 7.90652 12.0833 8.08333V10.0833M7.41667 7.41667V4.75M10.75 10.0833H13.4167C13.7849 10.0833 14.0833 10.3818 14.0833 10.75V13.4167C14.0833 13.7849 13.7849 14.0833 13.4167 14.0833H10.75C10.3818 14.0833 10.0833 13.7849 10.0833 13.4167V10.75C10.0833 10.3818 10.3818 10.0833 10.75 10.0833ZM1.41667 10.0833H4.08333C4.45152 10.0833 4.75 10.3818 4.75 10.75V13.4167C4.75 13.7849 4.45152 14.0833 4.08333 14.0833H1.41667C1.04848 14.0833 0.75 13.7849 0.75 13.4167V10.75C0.75 10.3818 1.04848 10.0833 1.41667 10.0833ZM6.08333 0.75H8.75C9.11819 0.75 9.41667 1.04848 9.41667 1.41667V4.08333C9.41667 4.45152 9.11819 4.75 8.75 4.75H6.08333C5.71514 4.75 5.41667 4.45152 5.41667 4.08333V1.41667C5.41667 1.04848 5.71514 0.75 6.08333 0.75Z" stroke="#737373" stroke-width="1.5" stroke-linecap="round" stroke-linejoin="round"/>
</svg>
