<svg width="16" height="16" viewBox="0 0 16 16" fill="none" xmlns="http://www.w3.org/2000/svg">
<path d="M13.3693 10.6577H2.63062M11.9999 3.33301C12.3536 3.33301 12.6927 3.47348 12.9427 3.72353C13.1928 3.97358 13.3333 4.31272 13.3333 4.66634V10.3503C13.3332 10.558 13.3816 10.7627 13.4746 10.9483L14.1866 12.3663C14.238 12.4683 14.2623 12.5818 14.2573 12.6959C14.2522 12.81 14.2179 12.9209 14.1577 13.0179C14.0975 13.115 14.0133 13.1949 13.9133 13.2501C13.8133 13.3052 13.7008 13.3338 13.5866 13.333H2.41327C2.29906 13.3338 2.18656 13.3052 2.08656 13.2501C1.98656 13.1949 1.90241 13.115 1.84218 13.0179C1.78195 12.9209 1.74766 12.81 1.7426 12.6959C1.73754 12.5818 1.76187 12.4683 1.81327 12.3663L2.52527 10.9483C2.61829 10.7627 2.66669 10.558 2.6666 10.3503V4.66634C2.6666 4.31272 2.80708 3.97358 3.05712 3.72353C3.30717 3.47348 3.64631 3.33301 3.99993 3.33301H11.9999Z" stroke="#737373" stroke-width="1.5" stroke-linecap="round" stroke-linejoin="round"/>
</svg>
