<svg width="16" height="16" viewBox="0 0 16 16" fill="none" xmlns="http://www.w3.org/2000/svg">
<g clip-path="url(#clip0_505_2100)">
<path d="M3.99992 14.6663V2.66634C3.99992 2.31272 4.14039 1.97358 4.39044 1.72353C4.64049 1.47348 4.97963 1.33301 5.33325 1.33301H10.6666C11.0202 1.33301 11.3593 1.47348 11.6094 1.72353C11.8594 1.97358 11.9999 2.31272 11.9999 2.66634V14.6663M3.99992 14.6663H11.9999M3.99992 14.6663H2.66659C2.31296 14.6663 1.97382 14.5259 1.72378 14.2758C1.47373 14.0258 1.33325 13.6866 1.33325 13.333V9.33301C1.33325 8.97939 1.47373 8.64025 1.72378 8.3902C1.97382 8.14015 2.31296 7.99967 2.66659 7.99967H3.99992M11.9999 14.6663H13.3333C13.6869 14.6663 14.026 14.5259 14.2761 14.2758C14.5261 14.0258 14.6666 13.6866 14.6666 13.333V7.33301C14.6666 6.97939 14.5261 6.64025 14.2761 6.3902C14.026 6.14015 13.6869 5.99967 13.3333 5.99967H11.9999M6.66658 3.99967H9.33325M6.66658 6.66634H9.33325M6.66658 9.33301H9.33325M6.66658 11.9997H9.33325" stroke="#737373" stroke-width="1.5" stroke-linecap="round" stroke-linejoin="round"/>
</g>
<defs>
<clipPath id="clip0_505_2100">
<rect width="16" height="16" fill="white"/>
</clipPath>
</defs>
</svg>
