<svg width="16" height="16" viewBox="0 0 16 16" fill="none" xmlns="http://www.w3.org/2000/svg">
<g clip-path="url(#clip0_505_2044)">
<path d="M9.22125 11.045C9.35894 11.1082 9.51405 11.1227 9.66105 11.086C9.80804 11.0492 9.93814 10.9636 10.0299 10.843L10.2666 10.533C10.3908 10.3674 10.5518 10.233 10.737 10.1404C10.9221 10.0479 11.1263 9.99967 11.3333 9.99967H13.3333C13.6869 9.99967 14.026 10.1402 14.2761 10.3902C14.5261 10.6402 14.6666 10.9794 14.6666 11.333V13.333C14.6666 13.6866 14.5261 14.0258 14.2761 14.2758C14.026 14.5259 13.6869 14.6663 13.3333 14.6663C10.1507 14.6663 7.09841 13.4021 4.84797 11.1516C2.59753 8.90119 1.33325 5.84894 1.33325 2.66634C1.33325 2.31272 1.47373 1.97358 1.72378 1.72353C1.97382 1.47348 2.31296 1.33301 2.66659 1.33301H4.66659C5.02021 1.33301 5.35935 1.47348 5.60939 1.72353C5.85944 1.97358 5.99992 2.31272 5.99992 2.66634V4.66634C5.99992 4.87333 5.95173 5.07749 5.85915 5.26263C5.76658 5.44777 5.63218 5.60881 5.46658 5.73301L5.15458 5.96701C5.0322 6.06046 4.94593 6.1934 4.91045 6.34324C4.87496 6.49308 4.89244 6.65059 4.95992 6.78901C5.87104 8.63958 7.36953 10.1362 9.22125 11.045Z" stroke="#737373" stroke-width="1.5" stroke-linecap="round" stroke-linejoin="round"/>
</g>
<defs>
<clipPath id="clip0_505_2044">
<rect width="16" height="16" fill="white"/>
</clipPath>
</defs>
</svg>
